# xmcd
#
# Track frame offsets:
#	150
#	17723
#	28972
#	45288
#	59246
#	76081
#	91339
#	107067
#	125052
#	139853
#	152119
#	168258
#	180736
#	195147
#	216065
#	231528
#	243902
#	265297
#	278406
#	297286
#	312056
#	325068
#	344470
#
# Disc length: 4782 seconds
#
# Revision: 1
# Processed by: cddbd v1.5.2PL0 Copyright (c) Steve Scherf et al.
# Submitted via: audiograbber 1.83.01
#
DISCID=4612ac17
DTITLE=—борник - The Best Of Country Music
DYEAR=2008
DGENRE=Country
TTITLE0=Alan Jackson - I Dont Even Your Name
TTITLE1=Jeef Carson - Yeah Buddy
TTITLE2=The Mavericks - The End Of The Line
TTITLE3=Pirates Of The Mississipi - Honky Tonk Blues
TTITLE4=Confederate Railroad - Bill is Laundromat, Bar and Grill
TTITLE5=Johnny Cash  - Personal Jesus
TTITLE6=Hank Williams III - .7 Months, 39 Days
TTITLE7=The Tractors - Baby Likes To Rock It
TTITLE8=Jeff Carson - Hangin By A Thread
TTITLE9=Red Simpson - Diesel Smoke, Dangerous Curves
TTITLE10=The Bottle Rockets - Indianapolis
TTITLE11=The Derailers - Whatever Maid You Change Your Mind
TTITLE12=Johnny Western - Ghost Riders In The Sky
TTITLE13=Dwtght Yoakam - A Place To Cry
TTITLE14=Travis Trett - Still Tn Love With You
TTITLE15=Randy Travis - Htart Of Hiarts
TTITLE16=Clint Black - We Tell Ourselves
TTITLE17=The Cactus Brothers - Sixten Tons
TTITLE18=Carth Brooks - Dont Cross The River
TTITLE19=Tim McGraw - That is Just Me
TTITLE20=John Michael Montgomery - Be My Baby Tonight
TTITLE21=The Bellamy Brothers - Let is Roll America
TTITLE22=Rodney Crowell - Crazy Baby
EXTD=
EXTT0=
EXTT1=
EXTT2=
EXTT3=
EXTT4=
EXTT5=
EXTT6=
EXTT7=
EXTT8=
EXTT9=
EXTT10=
EXTT11=
EXTT12=
EXTT13=
EXTT14=
EXTT15=
EXTT16=
EXTT17=
EXTT18=
EXTT19=
EXTT20=
EXTT21=
EXTT22=
PLAYORDER=
